<?xml version="1.0" encoding="iso-8859-1"?>
<!-- Generator: Adobe Illustrator 16.0.0, SVG Export Plug-In . SVG Version: 6.00 Build 0)  -->
<!DOCTYPE svg PUBLIC "-//W3C//DTD SVG 1.1//EN" "http://www.w3.org/Graphics/SVG/1.1/DTD/svg11.dtd">
<svg version="1.1" id="Capa_1" xmlns="http://www.w3.org/2000/svg" xmlns:xlink="http://www.w3.org/1999/xlink" x="0px" y="0px"
	 width="792px" height="792px" viewBox="0 0 792 792" style="enable-background:new 0 0 792 792;" xml:space="preserve">
<g>
	<g id="Shape_381_1_">
		<g>
			<path style="fill:#8dba41;" d="M396,165.824c-71.618,0-129.671,57.273-129.671,127.924c0,70.638,58.054,127.924,129.671,127.924
				s129.671-57.286,129.671-127.924C525.671,223.097,467.617,165.824,396,165.824z M693.744,294.396
				C693.744,131.828,560.435,0,396,0C231.566,0,98.256,131.087,98.256,292.755c0,62.023,19.625,119.521,53.091,166.87l-0.026,0.026
				L396,792l244.68-329.781l-0.026-0.027C674.119,414.593,693.744,356.764,693.744,294.396z M396,447
				c-85.79,0-155.343-68.626-155.343-153.252c0-84.639,69.553-153.252,155.343-153.252s155.343,68.6,155.343,153.252
				C551.343,378.374,481.79,447,396,447z"/>
		</g>
	</g>
</g>
<g>
</g>
<g>
</g>
<g>
</g>
<g>
</g>
<g>
</g>
<g>
</g>
<g>
</g>
<g>
</g>
<g>
</g>
<g>
</g>
<g>
</g>
<g>
</g>
<g>
</g>
<g>
</g>
<g>
</g>
</svg>
